<svg id="Layer_1" data-name="Layer 1" xmlns="http://www.w3.org/2000/svg" viewBox="0 0 1005.19 679.93"><defs><style>.cls-1{fill:#00e482;}</style></defs><path class="cls-1" d="M512.42,373.14h-10V252a6.63,6.63,0,0,1,6.63-6.62h3.33Z"/><path class="cls-1" d="M608.14,282.11h3.33a6.63,6.63,0,0,1,6.64,6.63v84.4h-10V353.59c-7,14.11-21.35,23.17-38.9,23.17-27.33,0-47-20.64-47-49.05,0-28.59,19.72-49.22,47-49.22,17.55,0,31.85,9.05,38.9,23.34Zm0,45.6c0-23-16.46-39.81-38-39.81-22.08,0-38,16.65-38,39.81,0,23,15.91,39.82,38,39.82,21.54,0,38-16.83,38-39.82"/><path class="cls-1" d="M644.34,245.37V301.3c7-13.95,21.16-22.81,38.54-22.81,27.33,0,47,20.81,47,49.22s-19.89,49-47,49c-17.55,0-31.66-9-38.91-23v19.37H634.2V252a6.63,6.63,0,0,1,6.63-6.62ZM682,288.26c-22.08,0-38,16.65-38,39.45S659.9,367,682,367c21.89,0,38-16.47,38-39.28s-15.92-39.45-38-39.45"/><path class="cls-1" d="M734.27,343.64h9.78c0,13.93,12.31,23.89,29.32,23.89,15.56,0,26.78-8.15,26.78-18.64,0-25.34-63.52-9.05-63.52-43.26,0-15.56,14.66-27.14,34-27.14,21.54,0,37.29,12.85,37.29,30.59l-10-.19c0-12.31-11.57-21-27.32-21-13.56,0-24.25,7.6-24.25,17.55,0,24.62,63.51,9.41,63.51,42.72,0,16.46-15.37,28.58-36.54,28.58-22.81,0-39.1-13.93-39.1-33.11"/><path class="cls-1" d="M204.11,373.18H174.06v-110a17.32,17.32,0,0,1,17.31-17.31h12.74Z"/><path class="cls-1" d="M423.86,351l28.56-92.81a17.5,17.5,0,0,1,16.7-12.34h18.39L446.75,373.18H401L360,245.86h18.54a17.31,17.31,0,0,1,16.52,12.2Z"/><path class="cls-1" d="M290.29,241.39c-41.84,0-70.44,27.91-70.44,68.14,0,40.39,28.6,68.11,70.44,68.11,41.65,0,70.44-27.72,70.44-68.11,0-40.23-28.79-68.14-70.44-68.14m0,110.51c-23.79-.17-40.42-17.5-40.42-42.37a47.23,47.23,0,0,1,4.63-20.94.08.08,0,0,1,0-.06,2.15,2.15,0,0,1,.22-.42,1.25,1.25,0,0,1,.2-.4c.12-.25.32-.61.55-1a7,7,0,0,0,.35-.61c.19-.29.39-.62.62-1,3.34-5,11-14,24.57-16.27l.69-.09a5.72,5.72,0,0,0,.61-.07c4.25-.32,17.53-.55,23.57,9.43.06.14.12.23.19.36a12.82,12.82,0,0,1,.78,1.52c.13.26.22.52.35.75,6.87,15.49-.42,37.41-9.89,46.46,0,0,28.44-16.12,27.33-41.18a45.77,45.77,0,0,1,6,23.47c0,24.87-16.63,42.37-40.42,42.37"/><path class="cls-1" d="M172,445.2V407.58h15.91c6.77,0,11.74,4.27,11.74,10.13a8.24,8.24,0,0,1-6,8.06,9.13,9.13,0,0,1,7.1,8.91c0,6.08-5.44,10.52-12.91,10.52Zm4.43-33.68v12.33h10.94c4.6,0,7.85-2.51,7.85-6.14s-3.25-6.19-7.85-6.19Zm0,16.28v13.45h10.78c5.28,0,9.08-2.89,9.08-6.77s-3.8-6.68-9.08-6.68Z"/><path class="cls-1" d="M208.18,434.36V418.25h4.06v16.11c0,4.75,2.73,8.22,7.53,8.22a8.61,8.61,0,0,0,8.75-8.53v-15.8h4V445.2h-4v-3.79a10.93,10.93,0,0,1-9.23,4.85c-6.89,0-11.11-5-11.11-11.9"/><path class="cls-1" d="M243.65,407.78a2.66,2.66,0,0,1,2.79,2.72,2.7,2.7,0,0,1-2.79,2.78,2.66,2.66,0,0,1-2.76-2.78,2.61,2.61,0,0,1,2.76-2.72m-2,10.47h4.05v26.94h-4.05Z"/><rect class="cls-1" x="254.7" y="405.97" width="4.11" height="39.22"/><path class="cls-1" d="M290.24,406h4.05v39.22h-4v-4.63a12.53,12.53,0,0,1-10.73,5.7c-8.05,0-13.92-6.14-13.92-14.51s5.87-14.57,13.92-14.57a12.46,12.46,0,0,1,10.63,5.6ZM280,442.32c6,0,10.3-4.49,10.3-10.57S286,421.13,280,421.13s-10.3,4.49-10.3,10.62,4.38,10.57,10.3,10.57"/><path class="cls-1" d="M305.37,407.78a2.66,2.66,0,0,1,2.78,2.72,2.7,2.7,0,0,1-2.78,2.78,2.67,2.67,0,0,1-2.78-2.78,2.63,2.63,0,0,1,2.78-2.72m-2,10.47h4v26.94h-4Z"/><path class="cls-1" d="M340.86,429.08v16.11H336.8V429.08c0-4.75-2.72-8.17-7.46-8.17a8.63,8.63,0,0,0-8.82,8.55v15.73h-4.06V418.25h4.06V422a11,11,0,0,1,9.24-4.86c6.88,0,11.1,5,11.1,11.9"/><path class="cls-1" d="M352.42,448.24a9.71,9.71,0,0,0,9.45,6.62c5.76,0,9.92-3.73,9.92-10.09v-4.26a12.51,12.51,0,0,1-10.61,5.43c-8.07,0-13.94-6-13.94-14.19,0-8.38,5.87-14.46,13.94-14.46a12.41,12.41,0,0,1,10.61,5.45v-4.49h4.06v26.52c0,8.65-5.83,13.77-13.82,13.77-6.51,0-12-3.84-13.5-9.34Zm19.47-16.49c0-6.3-4.32-10.84-10.29-10.84s-10.31,4.54-10.31,10.84a10.11,10.11,0,0,0,10.31,10.51c6,0,10.29-4.43,10.29-10.51"/><polygon class="cls-1" points="411.74 445.19 398.02 407.57 402.71 407.57 415.06 441.84 427.31 407.57 432.02 407.57 418.36 445.19 411.74 445.19"/><path class="cls-1" d="M458.32,418.25h4v26.94h-4v-4.74a12.66,12.66,0,0,1-10.84,5.82c-8.06,0-13.88-6.15-13.88-14.52s5.82-14.57,13.88-14.57A12.58,12.58,0,0,1,458.32,423Zm-.06,13.5c0-6.3-4.38-10.84-10.3-10.84s-10.29,4.54-10.29,10.84S442,442.58,448,442.58s10.3-4.59,10.3-10.83"/><rect class="cls-1" x="470.73" y="405.97" width="4.11" height="39.22"/><path class="cls-1" d="M482.68,434.36V418.25h4.05v16.11c0,4.75,2.72,8.22,7.52,8.22a8.62,8.62,0,0,0,8.76-8.53v-15.8h4.05V445.2H503v-3.79a10.91,10.91,0,0,1-9.23,4.85c-6.89,0-11.1-5-11.1-11.9"/><path class="cls-1" d="M537.53,437.19l3.63,1.33c-1.71,4.49-7,7.74-12.66,7.74-8.43,0-14.51-6.23-14.51-14.83,0-8.22,6-14.25,14.3-14.25s14.14,6,14.14,14.3c0,.48,0,1,0,1.6L518.14,433c.64,5.66,4.75,9.55,10.09,9.55,4.06,0,7.95-2.35,9.3-5.39m.63-7.63a10.06,10.06,0,0,0-19.91-.05Z"/><polygon class="cls-1" points="566.63 445.19 566.63 407.57 572.66 407.57 591.93 439.75 591.93 407.57 596.41 407.57 596.41 445.19 590.39 445.19 571.06 413.01 571.06 445.19 566.63 445.19"/><path class="cls-1" d="M627.66,437.19l3.64,1.33c-1.71,4.49-7.06,7.74-12.65,7.74-8.43,0-14.51-6.23-14.51-14.83,0-8.22,6-14.25,14.3-14.25s14.14,6,14.14,14.3a15.08,15.08,0,0,1-.06,1.6L608.29,433c.64,5.66,4.74,9.55,10.09,9.55,4.06,0,8-2.35,9.28-5.39m.66-7.63a9.81,9.81,0,0,0-10.05-8.64,9.7,9.7,0,0,0-9.87,8.59Z"/><path class="cls-1" d="M641.79,421.6h-4.43v-3.35H642l.59-6.31h3.31v6.31h7v3.35h-7v16.76a4.07,4.07,0,0,0,4.16,4.43,12.56,12.56,0,0,0,3.26-.53v3.37a16.39,16.39,0,0,1-4.27.63c-4.43,0-7.21-3.09-7.21-7.74Z"/><polygon class="cls-1" points="679.4 422.99 672.95 445.19 667.4 445.19 658.27 418.24 662.54 418.24 670.23 441.19 677 418.24 681.76 418.24 688.75 441.19 696.33 418.24 700.59 418.24 691.41 445.19 685.86 445.19 679.4 422.99"/><path class="cls-1" d="M719.89,446.26c-8.43,0-14.36-6-14.36-14.51s5.93-14.57,14.36-14.57,14.41,6,14.41,14.57-6,14.51-14.41,14.51m0-25.34c-6,0-10.3,4.54-10.3,10.83s4.32,10.83,10.3,10.83,10.3-4.58,10.3-10.83-4.32-10.83-10.3-10.83"/><path class="cls-1" d="M756.22,418v3.74a10,10,0,0,0-4-.85c-4.21,0-7,3.79-7,9.17V445.2h-4.06V418.25h4V422a8.25,8.25,0,0,1,7.46-4.69,10.32,10.32,0,0,1,3.64.74"/><polygon class="cls-1" points="766.24 445.19 762.19 445.19 762.19 405.97 766.24 405.97 766.24 429.14 777.98 418.25 783.48 418.25 769.98 430.79 784.01 445.19 778.51 445.19 766.24 432.44 766.24 445.19"/><path class="cls-1" d="M786.77,436.18h4c0,3.74,3.36,6.4,8,6.4,4.16,0,7.15-2,7.15-4.75-.05-6.78-18.53-1.8-18.53-12.48,0-4.7,4.54-8.17,10.35-8.17,6.63,0,11.54,3.83,11.54,9.12l-4-.05c0-3.1-3.21-5.34-7.64-5.34-3.47,0-6.29,1.93-6.29,4.55,0,6.61,18.52,2.18,18.52,12.1,0,5-4.65,8.71-11.1,8.71-6.95,0-12-4.27-11.91-10.09"/><path class="cls-1" d="M512.42,373.14h-10V252a6.63,6.63,0,0,1,6.63-6.62h3.33Z"/><path class="cls-1" d="M608.14,282.11h3.33a6.63,6.63,0,0,1,6.64,6.63v84.4h-10V353.59c-7,14.11-21.35,23.17-38.9,23.17-27.33,0-47-20.64-47-49.05,0-28.59,19.72-49.22,47-49.22,17.55,0,31.85,9.05,38.9,23.34Zm0,45.6c0-23-16.46-39.81-38-39.81-22.08,0-38,16.65-38,39.81,0,23,15.91,39.82,38,39.82,21.54,0,38-16.83,38-39.82"/><path class="cls-1" d="M644.34,245.37V301.3c7-13.95,21.16-22.81,38.54-22.81,27.33,0,47,20.81,47,49.22s-19.89,49-47,49c-17.55,0-31.66-9-38.91-23v19.37H634.2V252a6.63,6.63,0,0,1,6.63-6.62ZM682,288.26c-22.08,0-38,16.65-38,39.45S659.9,367,682,367c21.89,0,38-16.47,38-39.28s-15.92-39.45-38-39.45"/><path class="cls-1" d="M734.27,343.64h9.78c0,13.93,12.31,23.89,29.32,23.89,15.56,0,26.78-8.15,26.78-18.64,0-25.34-63.52-9.05-63.52-43.26,0-15.56,14.66-27.14,34-27.14,21.54,0,37.29,12.85,37.29,30.59l-10-.19c0-12.31-11.57-21-27.32-21-13.56,0-24.25,7.6-24.25,17.55,0,24.62,63.51,9.41,63.51,42.72,0,16.46-15.37,28.58-36.54,28.58-22.81,0-39.1-13.93-39.1-33.11"/><path class="cls-1" d="M204.11,373.18H174.06v-110a17.32,17.32,0,0,1,17.31-17.31h12.74Z"/><path class="cls-1" d="M423.86,351l28.56-92.81a17.5,17.5,0,0,1,16.7-12.34h18.39L446.75,373.18H401L360,245.86h18.54a17.31,17.31,0,0,1,16.52,12.2Z"/><path class="cls-1" d="M290.29,241.39c-41.84,0-70.44,27.91-70.44,68.14,0,40.39,28.6,68.11,70.44,68.11,41.65,0,70.44-27.72,70.44-68.11,0-40.23-28.79-68.14-70.44-68.14m0,110.51c-23.79-.17-40.42-17.5-40.42-42.37a47.23,47.23,0,0,1,4.63-20.94.08.08,0,0,1,0-.06,2.15,2.15,0,0,1,.22-.42,1.25,1.25,0,0,1,.2-.4c.12-.25.32-.61.55-1a7,7,0,0,0,.35-.61c.19-.29.39-.62.62-1,3.34-5,11-14,24.57-16.27l.69-.09a5.72,5.72,0,0,0,.61-.07c4.25-.32,17.53-.55,23.57,9.43.06.14.12.23.19.36a12.82,12.82,0,0,1,.78,1.52c.13.26.22.52.35.75,6.87,15.49-.42,37.41-9.89,46.46,0,0,28.44-16.12,27.33-41.18a45.77,45.77,0,0,1,6,23.47c0,24.87-16.63,42.37-40.42,42.37"/><path class="cls-1" d="M172,445.2V407.58h15.91c6.77,0,11.74,4.27,11.74,10.13a8.24,8.24,0,0,1-6,8.06,9.13,9.13,0,0,1,7.1,8.91c0,6.08-5.44,10.52-12.91,10.52Zm4.43-33.68v12.33h10.94c4.6,0,7.85-2.51,7.85-6.14s-3.25-6.19-7.85-6.19Zm0,16.28v13.45h10.78c5.28,0,9.08-2.89,9.08-6.77s-3.8-6.68-9.08-6.68Z"/><path class="cls-1" d="M208.18,434.36V418.25h4.06v16.11c0,4.75,2.73,8.22,7.53,8.22a8.61,8.61,0,0,0,8.75-8.53v-15.8h4V445.2h-4v-3.79a10.93,10.93,0,0,1-9.23,4.85c-6.89,0-11.11-5-11.11-11.9"/><path class="cls-1" d="M243.65,407.78a2.66,2.66,0,0,1,2.79,2.72,2.7,2.7,0,0,1-2.79,2.78,2.66,2.66,0,0,1-2.76-2.78,2.61,2.61,0,0,1,2.76-2.72m-2,10.47h4.05v26.94h-4.05Z"/><rect class="cls-1" x="254.7" y="405.97" width="4.11" height="39.22"/><path class="cls-1" d="M290.24,406h4.05v39.22h-4v-4.63a12.53,12.53,0,0,1-10.73,5.7c-8.05,0-13.92-6.14-13.92-14.51s5.87-14.57,13.92-14.57a12.46,12.46,0,0,1,10.63,5.6ZM280,442.32c6,0,10.3-4.49,10.3-10.57S286,421.13,280,421.13s-10.3,4.49-10.3,10.62,4.38,10.57,10.3,10.57"/><path class="cls-1" d="M305.37,407.78a2.66,2.66,0,0,1,2.78,2.72,2.7,2.7,0,0,1-2.78,2.78,2.67,2.67,0,0,1-2.78-2.78,2.63,2.63,0,0,1,2.78-2.72m-2,10.47h4v26.94h-4Z"/><path class="cls-1" d="M340.86,429.08v16.11H336.8V429.08c0-4.75-2.72-8.17-7.46-8.17a8.63,8.63,0,0,0-8.82,8.55v15.73h-4.06V418.25h4.06V422a11,11,0,0,1,9.24-4.86c6.88,0,11.1,5,11.1,11.9"/><path class="cls-1" d="M352.42,448.24a9.71,9.71,0,0,0,9.45,6.62c5.76,0,9.92-3.73,9.92-10.09v-4.26a12.51,12.51,0,0,1-10.61,5.43c-8.07,0-13.94-6-13.94-14.19,0-8.38,5.87-14.46,13.94-14.46a12.41,12.41,0,0,1,10.61,5.45v-4.49h4.06v26.52c0,8.65-5.83,13.77-13.82,13.77-6.51,0-12-3.84-13.5-9.34Zm19.47-16.49c0-6.3-4.32-10.84-10.29-10.84s-10.31,4.54-10.31,10.84a10.11,10.11,0,0,0,10.31,10.51c6,0,10.29-4.43,10.29-10.51"/><polygon class="cls-1" points="411.74 445.19 398.02 407.57 402.71 407.57 415.06 441.84 427.31 407.57 432.02 407.57 418.36 445.19 411.74 445.19"/><path class="cls-1" d="M458.32,418.25h4v26.94h-4v-4.74a12.66,12.66,0,0,1-10.84,5.82c-8.06,0-13.88-6.15-13.88-14.52s5.82-14.57,13.88-14.57A12.58,12.58,0,0,1,458.32,423Zm-.06,13.5c0-6.3-4.38-10.84-10.3-10.84s-10.29,4.54-10.29,10.84S442,442.58,448,442.58s10.3-4.59,10.3-10.83"/><rect class="cls-1" x="470.73" y="405.97" width="4.11" height="39.22"/><path class="cls-1" d="M482.68,434.36V418.25h4.05v16.11c0,4.75,2.72,8.22,7.52,8.22a8.62,8.62,0,0,0,8.76-8.53v-15.8h4.05V445.2H503v-3.79a10.91,10.91,0,0,1-9.23,4.85c-6.89,0-11.1-5-11.1-11.9"/><path class="cls-1" d="M537.53,437.19l3.63,1.33c-1.71,4.49-7,7.74-12.66,7.74-8.43,0-14.51-6.23-14.51-14.83,0-8.22,6-14.25,14.3-14.25s14.14,6,14.14,14.3c0,.48,0,1,0,1.6L518.14,433c.64,5.66,4.75,9.55,10.09,9.55,4.06,0,7.95-2.35,9.3-5.39m.63-7.63a10.06,10.06,0,0,0-19.91-.05Z"/><polygon class="cls-1" points="566.63 445.19 566.63 407.57 572.66 407.57 591.93 439.75 591.93 407.57 596.41 407.57 596.41 445.19 590.39 445.19 571.06 413.01 571.06 445.19 566.63 445.19"/><path class="cls-1" d="M627.66,437.19l3.64,1.33c-1.71,4.49-7.06,7.74-12.65,7.74-8.43,0-14.51-6.23-14.51-14.83,0-8.22,6-14.25,14.3-14.25s14.14,6,14.14,14.3a15.08,15.08,0,0,1-.06,1.6L608.29,433c.64,5.66,4.74,9.55,10.09,9.55,4.06,0,8-2.35,9.28-5.39m.66-7.63a9.81,9.81,0,0,0-10.05-8.64,9.7,9.7,0,0,0-9.87,8.59Z"/><path class="cls-1" d="M641.79,421.6h-4.43v-3.35H642l.59-6.31h3.31v6.31h7v3.35h-7v16.76a4.07,4.07,0,0,0,4.16,4.43,12.56,12.56,0,0,0,3.26-.53v3.37a16.39,16.39,0,0,1-4.27.63c-4.43,0-7.21-3.09-7.21-7.74Z"/><polygon class="cls-1" points="679.4 422.99 672.95 445.19 667.4 445.19 658.27 418.24 662.54 418.24 670.23 441.19 677 418.24 681.76 418.24 688.75 441.19 696.33 418.24 700.59 418.24 691.41 445.19 685.86 445.19 679.4 422.99"/><path class="cls-1" d="M719.89,446.26c-8.43,0-14.36-6-14.36-14.51s5.93-14.57,14.36-14.57,14.41,6,14.41,14.57-6,14.51-14.41,14.51m0-25.34c-6,0-10.3,4.54-10.3,10.83s4.32,10.83,10.3,10.83,10.3-4.58,10.3-10.83-4.32-10.83-10.3-10.83"/><path class="cls-1" d="M756.22,418v3.74a10,10,0,0,0-4-.85c-4.21,0-7,3.79-7,9.17V445.2h-4.06V418.25h4V422a8.25,8.25,0,0,1,7.46-4.69,10.32,10.32,0,0,1,3.64.74"/><polygon class="cls-1" points="766.24 445.19 762.19 445.19 762.19 405.97 766.24 405.97 766.24 429.14 777.98 418.25 783.48 418.25 769.98 430.79 784.01 445.19 778.51 445.19 766.24 432.44 766.24 445.19"/><path class="cls-1" d="M786.77,436.18h4c0,3.74,3.36,6.4,8,6.4,4.16,0,7.15-2,7.15-4.75-.05-6.78-18.53-1.8-18.53-12.48,0-4.7,4.54-8.17,10.35-8.17,6.63,0,11.54,3.83,11.54,9.12l-4-.05c0-3.1-3.21-5.34-7.64-5.34-3.47,0-6.29,1.93-6.29,4.55,0,6.61,18.52,2.18,18.52,12.1,0,5-4.65,8.71-11.1,8.71-6.95,0-12-4.27-11.91-10.09"/></svg>