<svg width="154" height="33" viewBox="0 0 154 33" fill="none" xmlns="http://www.w3.org/2000/svg">
<path d="M81.6578 31.8097H79.2816V2.63164C79.2816 1.71184 79.9459 1.04755 80.8657 1.04755H81.6578V31.8097Z" fill="#00D27D"/>
<path d="M104.653 9.8623H105.445C106.365 9.8623 107.029 10.5266 107.029 11.4464V31.8353H104.653V27.083C102.941 30.5067 99.5172 32.7296 95.327 32.7296C88.7607 32.7296 84.0084 27.7217 84.0084 20.8999C84.0084 14.078 88.7351 9.07025 95.327 9.07025C99.5428 9.07025 102.941 11.2931 104.653 14.7168V9.8623ZM104.653 20.8999C104.653 15.3811 100.718 11.2931 95.4548 11.2931C90.0637 11.2931 86.2568 15.3811 86.2568 20.8999C86.2568 26.4187 90.0637 30.5067 95.4548 30.5067C100.718 30.5067 104.653 26.4187 104.653 20.8999Z" fill="#00D27D"/>
<path d="M113.468 1.04755V14.589C115.179 11.1653 118.603 9.07024 122.793 9.07024C129.36 9.07024 134.112 14.078 134.112 20.8999C134.112 27.7217 129.257 32.7295 122.793 32.7295C118.578 32.7295 115.179 30.5067 113.468 27.2107V31.8097H111.091V2.63164C111.091 1.71184 111.756 1.04755 112.675 1.04755H113.468ZM122.538 11.2931C117.147 11.2931 113.34 15.3811 113.34 20.7466C113.34 26.2654 117.147 30.2001 122.538 30.2001C127.801 30.2001 131.736 26.2654 131.736 20.7466C131.736 15.3811 127.801 11.2931 122.538 11.2931Z" fill="#00D27D"/>
<path d="M135.159 24.7069H137.536C137.536 28.1306 140.551 30.4812 144.639 30.4812C148.445 30.4812 151.077 28.5138 151.077 26.0099C151.077 19.8268 135.696 23.7871 135.696 15.6111C135.696 11.8041 139.247 9.04471 143.846 9.04471C149.11 9.04471 152.789 12.1874 152.789 16.4031H150.413C150.413 13.3882 147.653 11.2676 143.846 11.2676C140.551 11.2676 137.919 13.1072 137.919 15.4833C137.919 21.4109 153.3 17.7062 153.3 25.7289C153.3 29.6636 149.621 32.5763 144.485 32.5763C139.094 32.7296 135.159 29.3059 135.159 24.7069Z" fill="#00D27D"/>
<path d="M7.23065 31.8097H0V5.2633C0 2.88715 1.8396 1.04755 4.21575 1.04755H7.23065V31.8097Z" fill="#00D27D"/>
<path d="M60.2213 26.5464L67.0687 4.19019C67.6053 2.47834 69.2916 1.1753 71.1567 1.1753H75.628L65.7401 31.8097H54.7025L44.8402 1.04755H49.3115C51.1511 1.04755 52.7352 2.22284 53.2462 3.93469L60.2213 26.5464Z" fill="#00D27D"/>
<path d="M28.0028 0C17.885 0 11.0376 6.6941 11.0376 16.4286C11.0376 26.1632 17.885 32.8573 28.0028 32.8573C37.9928 32.8573 44.968 26.1632 44.968 16.4286C44.968 6.82185 37.9928 0 28.0028 0ZM28.0028 26.6742C22.2285 26.6742 18.2682 22.4584 18.2682 16.4286C18.2682 14.589 18.6515 12.8772 19.4435 11.4209C19.4435 11.4209 19.4435 11.4209 19.4435 11.2931C19.4435 11.2931 19.4435 11.2931 19.4435 11.1654C19.4435 11.1654 19.5713 11.0376 19.5713 10.9099C19.5713 10.9099 19.5713 10.7821 19.699 10.7821C19.699 10.6544 19.8268 10.6544 19.8268 10.5266C20.6188 9.3513 22.4584 7.1029 25.7544 6.5919H25.8821H26.0099C27.0574 6.46415 30.2256 6.46415 31.6564 8.81475C31.6564 8.81475 31.6564 8.81475 31.6564 8.9425C31.7842 9.07025 31.7842 9.198 31.7842 9.32575C31.7842 9.32575 31.7842 9.4535 31.9119 9.4535C33.6238 13.1327 31.7842 18.5238 29.5358 20.6189C29.5358 20.6189 36.3832 16.6842 36.1021 10.6288C37.0219 12.2129 37.5585 14.1803 37.5585 16.2754C37.7373 22.484 33.7771 26.6742 28.0028 26.6742Z" fill="#00D27D"/>
</svg>
