<?xml version="1.0" encoding="utf-8"?>
<!-- Generator: Adobe Illustrator 19.2.1, SVG Export Plug-In . SVG Version: 6.00 Build 0)  -->
<svg version="1.1" id="layer" xmlns="http://www.w3.org/2000/svg" xmlns:xlink="http://www.w3.org/1999/xlink" x="0px" y="0px"
	 viewBox="0 0 652 652" style="enable-background:new 0 0 652 652;" xml:space="preserve">
<style type="text/css">
	.st0{fill:#00D27D;}
</style>
<path class="st0" d="M345.3,386.5H336V272.3c0-3.6,2.6-6.2,6.2-6.2h3.1L345.3,386.5L345.3,386.5z"/>
<path class="st0" d="M435.3,300.6h3.1c3.6,0,6.2,2.6,6.2,6.2v79.8h-9.3V368c-6.7,13.4-20.1,22.1-36.5,22.1
	c-25.7,0-44.3-19.6-44.3-46.3s18.5-46.3,44.3-46.3c16.5,0,29.8,8.7,36.5,22.1V300.6z M435.3,343.8c0-21.6-15.4-37.6-36-37.6
	c-21.1,0-36,16-36,37.6c0,21.6,14.9,37.6,36,37.6C419.9,381.4,435.3,365.4,435.3,343.8"/>
<path class="st0" d="M469.8,266.1v53c6.7-13.4,20.1-21.6,36.5-21.6c25.7,0,44.3,19.6,44.3,46.3s-19,46.3-44.3,46.3
	c-16.5,0-29.8-8.7-36.5-21.6v18h-9.3V272.3c0-3.6,2.6-6.2,6.2-6.2C466.7,266.1,469.8,266.1,469.8,266.1z M505.3,306.2
	c-21.1,0-36,16-36,37c0,21.6,14.9,37,36,37c20.6,0,36-15.4,36-37C541.3,322.2,525.9,306.2,505.3,306.2"/>
<path class="st0" d="M554.7,358.7h9.3c0,13.4,11.8,22.6,27.8,22.6c14.9,0,25.2-7.7,25.2-17.5c0-24.2-60.2-8.7-60.2-40.7
	c0-14.9,13.9-25.7,31.9-25.7c20.6,0,35,12.3,35,28.8h-9.3c0-11.8-10.8-20.1-25.7-20.1c-12.9,0-23.2,7.2-23.2,16.5
	c0,23.2,60.2,8.7,60.2,40.1c0,15.4-14.4,26.8-34.5,26.8C570.1,390.1,554.7,376.7,554.7,358.7"/>
<path class="st0" d="M54,386.5H25.7V282.6c0-9.3,7.2-16.5,16.5-16.5H54V386.5z"/>
<path class="st0" d="M261.4,365.9l26.8-87.5c2.1-6.7,8.7-11.8,16-11.8h17.5L283,386.5h-43.2l-38.6-120.4h17.5
	c7.2,0,13.4,4.6,15.4,11.3L261.4,365.9z"/>
<path class="st0" d="M135.3,262c-39.6,0-66.4,26.2-66.4,64.3s26.8,64.3,66.4,64.3c39.1,0,66.4-26.2,66.4-64.3
	C201.7,288.7,174.4,262,135.3,262 M135.3,366.4c-22.6,0-38.1-16.5-38.1-40.1c0-7.2,1.5-13.9,4.6-19.6l0,0c0,0,0,0,0-0.5
	c0,0,0,0,0-0.5c0,0,0.5-0.5,0.5-1c0,0,0-0.5,0.5-0.5c0-0.5,0.5-0.5,0.5-1c3.1-4.6,10.3-13.4,23.2-15.4h0.5h0.5
	c4.1-0.5,16.5-0.5,22.1,8.7c0,0,0,0,0,0.5c0.5,0.5,0.5,1,0.5,1.5c0,0,0,0.5,0.5,0.5c6.7,14.4-0.5,35.5-9.3,43.7
	c0,0,26.8-15.4,25.7-39.1c3.6,6.2,5.7,13.9,5.7,22.1C173.4,350,157.9,366.4,135.3,366.4"/>
</svg>
