<svg width="147" height="84" viewBox="0 0 147 84" fill="none" xmlns="http://www.w3.org/2000/svg">
<path d="M65.1362 69.664V37.912L71.5996 37.128L72.6026 42.112C74.7199 38.696 77.7845 36.96 81.852 36.96C82.6878 36.96 83.4122 37.016 83.9136 37.072L83.8022 43.568C83.0221 43.456 82.1863 43.4 81.3505 43.4C78.5088 43.4 76.3915 44.184 74.9428 45.696C73.5498 47.208 72.8254 49.336 72.8254 52.024V69.664H65.1362V69.664Z" fill="white"/>
<path d="M98.6793 70.28C93.8875 70.28 90.0985 69.44 87.2011 67.816L87.9812 61.992C89.2627 62.72 90.9343 63.336 92.9402 63.896C94.9461 64.456 96.7849 64.736 98.4008 64.736C100.128 64.736 101.465 64.4 102.413 63.784C103.36 63.168 103.861 62.216 103.861 60.928C103.861 59.808 103.416 58.912 102.524 58.24C101.632 57.568 99.9052 56.784 97.3978 55.832C96.5063 55.496 95.9491 55.328 95.7262 55.216C92.7174 54.04 90.6 52.752 89.2627 51.296C87.9255 49.84 87.3125 47.936 87.3125 45.472C87.3125 42.504 88.3712 40.264 90.4886 38.64C92.6059 37.072 95.6148 36.288 99.4037 36.288C103.527 36.288 107.149 37.072 110.269 38.64L108.375 44.016C105.31 42.56 102.357 41.832 99.5709 41.832C98.0107 41.832 96.7849 42.112 95.9491 42.616C95.0576 43.12 94.6118 43.96 94.6118 45.024C94.6118 46.032 95.0576 46.816 95.8934 47.376C96.7292 47.936 98.4007 48.664 100.852 49.56C100.908 49.56 101.187 49.672 101.632 49.84C102.078 50.008 102.413 50.12 102.635 50.232C105.589 51.296 107.762 52.64 109.155 54.152C110.548 55.664 111.272 57.624 111.272 60.088C111.272 63.336 110.158 65.856 107.985 67.648C105.811 69.384 102.691 70.28 98.6793 70.28Z" fill="white"/>
<path d="M132.835 51.128L146.041 37.128H136.847L123.642 50.736V26.488L115.897 27.944V69.664H123.642V60.872L127.876 56.336L137.516 69.664H146.877L132.835 51.128Z" fill="white"/>
<path d="M57.7812 37.8C57.5583 37.688 51.9306 34.664 47.1387 37.464C43.2941 39.704 42.5697 44.128 42.4026 45.976L40.6753 46.984C39.7838 46.088 38.6136 45.584 37.2764 45.584C35.9391 45.584 34.769 46.088 33.8775 46.984L25.7981 42.28C25.9096 41.888 25.9653 41.496 25.9653 41.104C25.9653 38.864 24.4609 36.96 22.455 36.4V33.488C24.7952 31.976 32.2616 26.432 32.2616 17.64C32.2616 7.448 22.2321 1.12 21.7863 0.839998L21.062 0.391998L20.3376 0.839998C19.8919 1.12 9.86236 7.448 9.86236 17.64C9.86236 26.432 17.3288 31.976 19.669 33.488V36.4C17.6074 36.96 16.1587 38.864 16.1587 41.104C16.1587 41.496 16.2144 41.888 16.3258 42.28L8.24649 46.984C7.35498 46.144 6.18487 45.584 4.8476 45.584C2.17306 45.584 -0.0557251 47.768 -0.0557251 50.512C-0.0557251 52.752 1.4487 54.656 3.45461 55.216V64.96C1.50442 65.52 -5.53644e-06 67.424 -5.53644e-06 69.664C-5.53644e-06 72.352 2.17306 74.592 4.90332 74.592C6.35202 74.592 7.63357 73.976 8.52509 72.968L16.3815 77.504C16.2701 77.896 16.2144 78.288 16.2144 78.68C16.2144 81.368 18.3874 83.552 21.1177 83.552C23.7922 83.552 26.021 81.368 26.021 78.68C26.021 78.288 25.9653 77.896 25.8539 77.504L33.7103 72.968C34.6018 73.976 35.8834 74.592 37.3321 74.592C40.0066 74.592 42.2354 72.408 42.2354 69.664C42.2354 67.424 40.731 65.52 38.7251 64.96V55.216C40.731 54.6 42.2354 52.752 42.2354 50.512C42.2354 50.12 42.1797 49.728 42.124 49.392L43.907 48.384C44.9657 48.888 46.9716 49.672 49.2561 49.672C50.6491 49.672 52.1535 49.392 53.6022 48.552C58.3384 45.808 58.617 39.368 58.617 39.144V38.304L57.7812 37.8ZM38.6137 52.192C38.2236 52.472 37.7779 52.64 37.2764 52.64C36.9978 52.64 36.7749 52.584 36.4963 52.472C36.2734 52.416 36.1063 52.304 35.9391 52.136C35.4934 51.8 35.2148 51.296 35.1033 50.736C35.1033 50.624 35.1033 50.512 35.1033 50.4C35.1033 50.288 35.1033 50.232 35.1033 50.12C35.2148 49.336 35.7162 48.664 36.4406 48.384C36.6635 48.272 36.9421 48.216 37.2207 48.216C37.4993 48.216 37.8336 48.272 38.0565 48.384C38.8365 48.72 39.3937 49.504 39.3937 50.4C39.3937 50.512 39.3937 50.624 39.338 50.736C39.338 51.408 39.0037 51.856 38.6137 52.192ZM39.4494 69.664C39.4494 70.896 38.4465 71.848 37.2764 71.848C36.8863 71.848 36.4406 71.736 36.162 71.512C35.5491 71.12 35.1033 70.448 35.1033 69.664V69.608C35.1033 69.384 35.159 69.16 35.2148 68.936C35.3262 68.544 35.6048 68.208 35.9391 67.928C36.2177 67.704 36.552 67.536 36.8863 67.48C36.9978 67.48 37.1092 67.424 37.2764 67.424C37.7779 67.424 38.2793 67.592 38.6137 67.872C39.1151 68.32 39.4494 68.936 39.4494 69.664ZM35.9391 64.96C35.2705 65.128 34.6576 65.464 34.1561 65.912L25.8539 61.096C25.9096 60.76 25.9653 60.48 25.9653 60.144C25.9653 59.696 25.9096 59.192 25.7424 58.8L33.8775 54.096C34.4347 54.656 35.1033 55.048 35.8834 55.272V64.96H35.9391ZM21.062 80.864C19.9476 80.864 19.0561 80.08 18.8889 79.016C18.8889 78.904 18.8889 78.792 18.8889 78.68C18.8889 77.784 19.4461 77 20.2262 76.664C20.5048 76.552 20.7834 76.496 21.062 76.496C21.3406 76.496 21.6192 76.552 21.8978 76.664C22.6779 77 23.2351 77.784 23.2351 78.68C23.2351 78.792 23.2351 78.904 23.2351 79.016C23.0679 80.08 22.1764 80.864 21.062 80.864ZM16.2701 61.096L7.96789 65.912C7.46642 65.464 6.8535 65.128 6.18487 64.96V55.216C6.96494 54.992 7.63357 54.6 8.19077 54.04L16.3258 58.744C16.2144 59.192 16.1029 59.64 16.1029 60.144C16.2144 60.48 16.2144 60.816 16.2701 61.096ZM7.07638 69.664C7.07638 70.448 6.68634 71.12 6.01771 71.512C5.68339 71.736 5.29335 71.848 4.90332 71.848C3.67749 71.848 2.73025 70.84 2.73025 69.664C2.73025 68.992 3.06457 68.32 3.56605 67.928C3.95608 67.648 4.40184 67.48 4.90332 67.48C5.01476 67.48 5.18191 67.48 5.29335 67.536C5.68339 67.592 5.96199 67.76 6.24059 67.984C6.5749 68.208 6.79778 68.6 6.96494 68.992C7.02066 69.216 7.07638 69.44 7.07638 69.664C7.07638 69.608 7.07638 69.608 7.07638 69.664ZM2.67453 50.512C2.67453 49.28 3.67749 48.328 4.8476 48.328C5.12619 48.328 5.40479 48.384 5.62767 48.496C6.35202 48.776 6.8535 49.448 6.96494 50.232C6.96494 50.344 6.96494 50.456 6.96494 50.568C6.96494 50.68 6.96494 50.792 6.96494 50.904C6.90922 51.464 6.5749 51.968 6.12915 52.304C5.96199 52.416 5.79483 52.528 5.57195 52.64C5.34907 52.752 5.07047 52.808 4.79188 52.808C4.2904 52.808 3.78892 52.64 3.45461 52.36C3.00885 51.8 2.67453 51.184 2.67453 50.512ZM19.7247 39.368C20.1148 39.088 20.5605 38.92 21.062 38.92C21.5635 38.92 22.0649 39.088 22.3993 39.368C22.845 39.704 23.1236 40.208 23.1793 40.768C23.1793 40.88 23.1793 40.992 23.1793 41.104C23.1793 41.776 22.845 42.448 22.3435 42.84C22.1764 42.952 22.0092 43.064 21.7863 43.176C21.5635 43.288 21.2849 43.344 21.0063 43.344C20.7277 43.344 20.4491 43.288 20.2262 43.176C20.0033 43.12 19.8362 43.008 19.669 42.84C19.1675 42.448 18.8332 41.832 18.8332 41.104C18.8332 40.992 18.8332 40.88 18.8332 40.768C19.0004 40.208 19.279 39.704 19.7247 39.368ZM23.2351 60.2C23.2351 60.872 22.9007 61.432 22.3993 61.824C22.2878 61.88 22.1764 61.992 22.0649 62.048C21.7306 62.216 21.3963 62.328 21.0063 62.328C20.6162 62.328 20.2819 62.216 20.0033 62.048C19.8919 61.992 19.7804 61.936 19.669 61.824C19.1675 61.432 18.8332 60.816 18.8332 60.144V60.088C18.8332 59.864 18.8332 59.696 18.8889 59.528C19.0004 59.08 19.279 58.688 19.6133 58.352C19.8362 58.184 20.1148 58.016 20.4491 57.96C20.6162 57.904 20.7834 57.904 21.0063 57.904C21.2291 57.904 21.3963 57.904 21.5635 57.96C21.8421 58.016 22.1207 58.184 22.3435 58.352C22.6779 58.632 22.9565 59.024 23.0679 59.472C23.1236 59.64 23.1236 59.864 23.1236 60.088C23.2351 60.144 23.2351 60.2 23.2351 60.2ZM32.5402 49.28C32.4288 49.672 32.3731 50.064 32.3731 50.456C32.3731 50.848 32.4288 51.296 32.5402 51.688L24.2937 56.448C23.7365 55.944 23.1236 55.608 22.3993 55.384V45.808C23.1793 45.584 23.848 45.192 24.4052 44.632L32.5402 49.28ZM12.5926 17.64C12.5926 10.416 18.8889 5.208 21.062 3.64C23.235 5.208 29.5314 10.416 29.5314 17.64C29.5314 23.688 25.0738 28.056 22.3993 30.128V18.76C22.3993 18.032 21.7863 17.416 21.062 17.416C20.3376 17.416 19.7247 18.032 19.7247 18.76V30.184C17.0502 28.056 12.5926 23.744 12.5926 17.64ZM17.6631 44.632C18.2203 45.192 18.9446 45.584 19.669 45.808V55.44C18.9446 55.664 18.3317 56 17.7745 56.504L9.52804 51.744C9.63948 51.352 9.6952 50.96 9.6952 50.568C9.6952 50.176 9.63948 49.784 9.52804 49.392L17.6631 44.632ZM9.6952 70.504C9.75092 70.224 9.75092 69.944 9.75092 69.664C9.75092 69.16 9.6952 68.656 9.52804 68.152L17.5517 63.504C18.1089 64.12 18.8889 64.568 19.7247 64.848V73.976C18.9446 74.2 18.276 74.592 17.6631 75.152L9.6952 70.504ZM24.4609 75.152C23.9037 74.592 23.1793 74.2 22.3993 73.976V64.848C23.2351 64.624 24.0151 64.12 24.5723 63.504L32.5959 68.152C32.4288 68.6 32.3731 69.104 32.3731 69.664C32.3731 69.944 32.3731 70.224 32.4288 70.504L24.4609 75.152ZM52.1535 46.144C50.3705 47.208 48.3646 46.984 46.8044 46.592L49.479 45.024C50.1476 44.632 50.3705 43.848 49.9804 43.176C49.5904 42.504 48.8103 42.28 48.1417 42.672L45.4672 44.24C45.8572 42.728 46.7487 40.88 48.5317 39.816C51.0948 38.304 54.2708 39.256 55.7196 39.872C55.4967 41.384 54.7166 44.632 52.1535 46.144Z" fill="white"/>
</svg>
