<svg width="781" height="80" viewBox="0 0 781 80" fill="none" xmlns="http://www.w3.org/2000/svg">
<rect y="60" width="780" height="20" rx="10" fill="#D3D3D3"/>
<rect y="60" width="520" height="20" rx="10" fill="#00D27D"/>
<path d="M731.4 25.18C730.536 25.18 729.768 25.072 729.096 24.856C728.424 24.64 727.794 24.274 727.206 23.758C726.882 23.47 726.72 23.152 726.72 22.804C726.72 22.528 726.822 22.288 727.026 22.084C727.23 21.868 727.476 21.76 727.764 21.76C727.992 21.76 728.196 21.832 728.376 21.976C728.856 22.372 729.324 22.66 729.78 22.84C730.236 23.02 730.776 23.11 731.4 23.11C732.072 23.11 732.648 22.96 733.128 22.66C733.62 22.36 733.866 21.988 733.866 21.544C733.866 21.004 733.626 20.584 733.146 20.284C732.666 19.972 731.904 19.738 730.86 19.582C728.232 19.198 726.918 17.974 726.918 15.91C726.918 15.154 727.116 14.5 727.512 13.948C727.908 13.384 728.448 12.958 729.132 12.67C729.816 12.37 730.578 12.22 731.418 12.22C732.174 12.22 732.882 12.334 733.542 12.562C734.214 12.79 734.772 13.09 735.216 13.462C735.564 13.738 735.738 14.056 735.738 14.416C735.738 14.692 735.636 14.938 735.432 15.154C735.228 15.358 734.988 15.46 734.712 15.46C734.532 15.46 734.37 15.406 734.226 15.298C733.914 15.046 733.476 14.818 732.912 14.614C732.36 14.398 731.862 14.29 731.418 14.29C730.662 14.29 730.074 14.434 729.654 14.722C729.246 14.998 729.042 15.364 729.042 15.82C729.042 16.336 729.252 16.726 729.672 16.99C730.104 17.254 730.776 17.47 731.688 17.638C732.72 17.818 733.542 18.052 734.154 18.34C734.778 18.616 735.246 19 735.558 19.492C735.87 19.972 736.026 20.614 736.026 21.418C736.026 22.174 735.81 22.84 735.378 23.416C734.958 23.98 734.394 24.418 733.686 24.73C732.978 25.03 732.216 25.18 731.4 25.18ZM742.554 22.966C742.722 22.966 742.872 23.05 743.004 23.218C743.148 23.374 743.22 23.584 743.22 23.848C743.22 24.172 743.04 24.448 742.68 24.676C742.332 24.892 741.936 25 741.492 25C740.748 25 740.118 24.844 739.602 24.532C739.098 24.208 738.846 23.53 738.846 22.498V17.53H738.018C737.73 17.53 737.49 17.434 737.298 17.242C737.106 17.05 737.01 16.81 737.01 16.522C737.01 16.246 737.106 16.018 737.298 15.838C737.49 15.646 737.73 15.55 738.018 15.55H738.846V14.398C738.846 14.086 738.948 13.828 739.152 13.624C739.368 13.408 739.632 13.3 739.944 13.3C740.244 13.3 740.496 13.408 740.7 13.624C740.904 13.828 741.006 14.086 741.006 14.398V15.55H742.284C742.572 15.55 742.812 15.646 743.004 15.838C743.196 16.03 743.292 16.27 743.292 16.558C743.292 16.834 743.196 17.068 743.004 17.26C742.812 17.44 742.572 17.53 742.284 17.53H741.006V22.408C741.006 22.66 741.072 22.846 741.204 22.966C741.336 23.074 741.516 23.128 741.744 23.128C741.84 23.128 741.972 23.104 742.14 23.056C742.284 22.996 742.422 22.966 742.554 22.966ZM753.828 19.96C753.816 20.248 753.702 20.482 753.486 20.662C753.27 20.842 753.018 20.932 752.73 20.932H746.79C746.934 21.64 747.264 22.198 747.78 22.606C748.296 23.002 748.878 23.2 749.526 23.2C750.018 23.2 750.402 23.158 750.678 23.074C750.954 22.978 751.17 22.882 751.326 22.786C751.494 22.678 751.608 22.606 751.668 22.57C751.884 22.462 752.088 22.408 752.28 22.408C752.532 22.408 752.748 22.498 752.928 22.678C753.108 22.858 753.198 23.068 753.198 23.308C753.198 23.632 753.03 23.926 752.694 24.19C752.358 24.466 751.908 24.7 751.344 24.892C750.78 25.084 750.21 25.18 749.634 25.18C748.626 25.18 747.744 24.97 746.988 24.55C746.244 24.13 745.668 23.554 745.26 22.822C744.852 22.078 744.648 21.244 744.648 20.32C744.648 19.288 744.864 18.382 745.296 17.602C745.728 16.822 746.298 16.228 747.006 15.82C747.714 15.4 748.47 15.19 749.274 15.19C750.066 15.19 750.81 15.406 751.506 15.838C752.214 16.27 752.778 16.852 753.198 17.584C753.618 18.316 753.828 19.108 753.828 19.96ZM749.274 17.17C747.882 17.17 747.06 17.824 746.808 19.132H751.524V19.006C751.476 18.502 751.23 18.07 750.786 17.71C750.342 17.35 749.838 17.17 749.274 17.17ZM760.615 15.19C761.443 15.19 762.193 15.406 762.865 15.838C763.537 16.258 764.065 16.846 764.449 17.602C764.845 18.358 765.043 19.216 765.043 20.176C765.043 21.136 764.851 22 764.467 22.768C764.083 23.524 763.555 24.118 762.883 24.55C762.223 24.97 761.491 25.18 760.687 25.18C760.111 25.18 759.565 25.066 759.049 24.838C758.545 24.598 758.125 24.31 757.789 23.974V27.502C757.789 27.814 757.687 28.072 757.483 28.276C757.279 28.492 757.021 28.6 756.709 28.6C756.397 28.6 756.139 28.498 755.935 28.294C755.731 28.09 755.629 27.826 755.629 27.502V16.468C755.629 16.156 755.731 15.898 755.935 15.694C756.139 15.478 756.397 15.37 756.709 15.37C757.021 15.37 757.279 15.478 757.483 15.694C757.687 15.898 757.789 16.156 757.789 16.468V16.54C758.077 16.18 758.479 15.868 758.995 15.604C759.511 15.328 760.051 15.19 760.615 15.19ZM760.345 23.2C761.113 23.2 761.743 22.912 762.235 22.336C762.727 21.76 762.973 21.04 762.973 20.176C762.973 19.312 762.727 18.598 762.235 18.034C761.755 17.458 761.125 17.17 760.345 17.17C759.565 17.17 758.929 17.458 758.437 18.034C757.945 18.598 757.699 19.312 757.699 20.176C757.699 21.04 757.945 21.76 758.437 22.336C758.929 22.912 759.565 23.2 760.345 23.2ZM778.819 23.02C779.107 23.02 779.347 23.116 779.539 23.308C779.731 23.5 779.827 23.74 779.827 24.028C779.827 24.304 779.731 24.538 779.539 24.73C779.347 24.91 779.107 25 778.819 25H772.699C772.387 25 772.141 24.904 771.961 24.712C771.781 24.52 771.691 24.274 771.691 23.974C771.691 23.674 771.799 23.41 772.015 23.182L775.939 18.988C776.383 18.508 776.731 18.028 776.983 17.548C777.247 17.056 777.379 16.606 777.379 16.198C777.379 15.658 777.187 15.19 776.803 14.794C776.419 14.398 775.975 14.2 775.471 14.2C775.123 14.2 774.769 14.32 774.409 14.56C774.061 14.788 773.743 15.094 773.455 15.478C773.239 15.766 772.963 15.91 772.627 15.91C772.363 15.91 772.117 15.808 771.889 15.604C771.673 15.4 771.565 15.172 771.565 14.92C771.565 14.74 771.625 14.56 771.745 14.38C771.865 14.188 772.045 13.972 772.285 13.732C772.741 13.276 773.269 12.91 773.869 12.634C774.469 12.358 775.045 12.22 775.597 12.22C776.389 12.22 777.085 12.388 777.685 12.724C778.285 13.06 778.747 13.522 779.071 14.11C779.395 14.698 779.557 15.364 779.557 16.108C779.557 16.84 779.359 17.596 778.963 18.376C778.579 19.144 778.057 19.882 777.397 20.59L775.111 23.02H778.819Z" fill="black"/>
<path d="M13.56 8.016C14.056 8.272 14.304 8.68 14.304 9.24C14.304 9.576 14.184 9.904 13.944 10.224C13.688 10.56 13.36 10.728 12.96 10.728C12.688 10.728 12.416 10.656 12.144 10.512C11.36 10.144 10.512 9.96 9.6 9.96C8.48 9.96 7.504 10.2 6.672 10.68C5.84 11.144 5.2 11.808 4.752 12.672C4.304 13.52 4.08 14.496 4.08 15.6C4.08 17.488 4.584 18.92 5.592 19.896C6.616 20.872 7.952 21.36 9.6 21.36C10.576 21.36 11.424 21.176 12.144 20.808C12.432 20.68 12.688 20.616 12.912 20.616C13.328 20.616 13.68 20.792 13.968 21.144C14.208 21.448 14.328 21.776 14.328 22.128C14.328 22.384 14.264 22.616 14.136 22.824C14.008 23.032 13.824 23.192 13.584 23.304C12.336 23.928 11.008 24.24 9.6 24.24C8.032 24.24 6.592 23.912 5.28 23.256C3.968 22.584 2.92 21.6 2.136 20.304C1.352 19.008 0.96 17.44 0.96 15.6C0.96 13.968 1.328 12.504 2.064 11.208C2.816 9.912 3.848 8.904 5.16 8.184C6.472 7.448 7.952 7.08 9.6 7.08C11.024 7.08 12.344 7.392 13.56 8.016ZM28.9429 17.592C28.9429 18.872 28.6549 20.024 28.0789 21.048C27.5029 22.056 26.7109 22.84 25.7029 23.4C24.7109 23.96 23.6149 24.24 22.4149 24.24C21.1989 24.24 20.0949 23.96 19.1029 23.4C18.1109 22.84 17.3269 22.056 16.7509 21.048C16.1749 20.024 15.8869 18.872 15.8869 17.592C15.8869 16.312 16.1749 15.168 16.7509 14.16C17.3269 13.136 18.1109 12.344 19.1029 11.784C20.0949 11.208 21.1989 10.92 22.4149 10.92C23.6149 10.92 24.7109 11.208 25.7029 11.784C26.7109 12.344 27.5029 13.136 28.0789 14.16C28.6549 15.168 28.9429 16.312 28.9429 17.592ZM26.0629 17.592C26.0629 16.808 25.8949 16.112 25.5589 15.504C25.2389 14.88 24.7989 14.4 24.2389 14.064C23.6949 13.728 23.0869 13.56 22.4149 13.56C21.7429 13.56 21.1269 13.728 20.5669 14.064C20.0229 14.4 19.5829 14.88 19.2469 15.504C18.9269 16.112 18.7669 16.808 18.7669 17.592C18.7669 18.376 18.9269 19.072 19.2469 19.68C19.5829 20.288 20.0229 20.76 20.5669 21.096C21.1269 21.432 21.7429 21.6 22.4149 21.6C23.0869 21.6 23.6949 21.432 24.2389 21.096C24.7989 20.76 25.2389 20.288 25.5589 19.68C25.8949 19.072 26.0629 18.376 26.0629 17.592ZM38.2131 10.92C39.8451 10.92 40.9731 11.408 41.5971 12.384C42.2211 13.344 42.5331 14.68 42.5331 16.392V22.536C42.5331 22.952 42.3971 23.304 42.1251 23.592C41.8531 23.864 41.5091 24 41.0931 24C40.6771 24 40.3331 23.864 40.0611 23.592C39.7891 23.304 39.6531 22.952 39.6531 22.536V16.392C39.6531 15.512 39.4691 14.824 39.1011 14.328C38.7331 13.816 38.1011 13.56 37.2051 13.56C36.2771 13.56 35.5491 13.832 35.0211 14.376C34.4931 14.904 34.2291 15.576 34.2291 16.392V22.536C34.2291 22.952 34.0931 23.304 33.8211 23.592C33.5491 23.864 33.2051 24 32.7891 24C32.3731 24 32.0291 23.864 31.7571 23.592C31.4851 23.304 31.3491 22.952 31.3491 22.536V12.624C31.3491 12.208 31.4851 11.864 31.7571 11.592C32.0291 11.304 32.3731 11.16 32.7891 11.16C33.2051 11.16 33.5491 11.304 33.8211 11.592C34.0931 11.864 34.2291 12.208 34.2291 12.624V13.032C34.6611 12.456 35.2211 11.96 35.9091 11.544C36.6131 11.128 37.3811 10.92 38.2131 10.92ZM51.8379 21.288C52.0619 21.288 52.2619 21.4 52.4379 21.624C52.6299 21.832 52.7259 22.112 52.7259 22.464C52.7259 22.896 52.4859 23.264 52.0059 23.568C51.5419 23.856 51.0139 24 50.4219 24C49.4299 24 48.5899 23.792 47.9019 23.376C47.2299 22.944 46.8939 22.04 46.8939 20.664V14.04H45.7899C45.4059 14.04 45.0859 13.912 44.8299 13.656C44.5739 13.4 44.4459 13.08 44.4459 12.696C44.4459 12.328 44.5739 12.024 44.8299 11.784C45.0859 11.528 45.4059 11.4 45.7899 11.4H46.8939V9.864C46.8939 9.448 47.0299 9.104 47.3019 8.832C47.5899 8.544 47.9419 8.4 48.3579 8.4C48.7579 8.4 49.0939 8.544 49.3659 8.832C49.6379 9.104 49.7739 9.448 49.7739 9.864V11.4H51.4779C51.8619 11.4 52.1819 11.528 52.4379 11.784C52.6939 12.04 52.8219 12.36 52.8219 12.744C52.8219 13.112 52.6939 13.424 52.4379 13.68C52.1819 13.92 51.8619 14.04 51.4779 14.04H49.7739V20.544C49.7739 20.88 49.8619 21.128 50.0379 21.288C50.2139 21.432 50.4539 21.504 50.7579 21.504C50.8859 21.504 51.0619 21.472 51.2859 21.408C51.4779 21.328 51.6619 21.288 51.8379 21.288ZM65.8583 10.92C66.2743 10.92 66.6183 11.056 66.8903 11.328C67.1623 11.6 67.2983 11.952 67.2983 12.384V22.536C67.2983 22.952 67.1623 23.304 66.8903 23.592C66.6183 23.864 66.2743 24 65.8583 24C65.4423 24 65.0983 23.864 64.8263 23.592C64.5703 23.32 64.4343 22.976 64.4183 22.56C64.0183 23.024 63.4743 23.424 62.7863 23.76C62.1143 24.08 61.4023 24.24 60.6503 24.24C59.5463 24.24 58.5463 23.96 57.6503 23.4C56.7543 22.824 56.0423 22.032 55.5143 21.024C55.0023 20.016 54.7463 18.872 54.7463 17.592C54.7463 16.312 55.0023 15.168 55.5143 14.16C56.0263 13.136 56.7223 12.344 57.6023 11.784C58.4983 11.208 59.4823 10.92 60.5543 10.92C61.3223 10.92 62.0423 11.064 62.7143 11.352C63.3863 11.624 63.9543 11.976 64.4183 12.408V12.384C64.4183 11.968 64.5543 11.624 64.8263 11.352C65.0983 11.064 65.4423 10.92 65.8583 10.92ZM61.0103 21.6C62.0503 21.6 62.8983 21.224 63.5543 20.472C64.2103 19.704 64.5383 18.744 64.5383 17.592C64.5383 16.44 64.2103 15.48 63.5543 14.712C62.8983 13.944 62.0503 13.56 61.0103 13.56C59.9863 13.56 59.1463 13.944 58.4903 14.712C57.8343 15.48 57.5063 16.44 57.5063 17.592C57.5063 18.744 57.8263 19.704 58.4663 20.472C59.1223 21.224 59.9703 21.6 61.0103 21.6ZM76.0114 10.92C77.3714 10.92 78.4674 11.136 79.2994 11.568C80.1314 11.984 80.5474 12.544 80.5474 13.248C80.5474 13.6 80.4434 13.912 80.2354 14.184C80.0274 14.44 79.7554 14.568 79.4194 14.568C79.1634 14.568 78.9554 14.536 78.7954 14.472C78.6354 14.392 78.4754 14.296 78.3154 14.184C78.1714 14.056 78.0274 13.952 77.8834 13.872C77.7234 13.792 77.4834 13.72 77.1634 13.656C76.8594 13.592 76.6114 13.56 76.4194 13.56C75.2194 13.56 74.2754 13.936 73.5874 14.688C72.9154 15.424 72.5794 16.392 72.5794 17.592C72.5794 18.744 72.9234 19.704 73.6114 20.472C74.2994 21.224 75.1794 21.6 76.2514 21.6C77.0354 21.6 77.6194 21.504 78.0034 21.312C78.0994 21.264 78.2274 21.184 78.3874 21.072C78.5634 20.944 78.7234 20.848 78.8674 20.784C79.0114 20.72 79.1874 20.688 79.3954 20.688C79.7954 20.688 80.1074 20.816 80.3314 21.072C80.5714 21.328 80.6914 21.656 80.6914 22.056C80.6914 22.44 80.4674 22.8 80.0194 23.136C79.5714 23.472 78.9794 23.744 78.2434 23.952C77.5074 24.144 76.7234 24.24 75.8914 24.24C74.6594 24.24 73.5714 23.952 72.6274 23.376C71.6994 22.8 70.9794 22.008 70.4674 21C69.9554 19.976 69.6994 18.84 69.6994 17.592C69.6994 16.296 69.9634 15.144 70.4914 14.136C71.0354 13.128 71.7874 12.344 72.7474 11.784C73.7074 11.208 74.7954 10.92 76.0114 10.92ZM88.9629 21.288C89.1869 21.288 89.3869 21.4 89.5629 21.624C89.7549 21.832 89.8509 22.112 89.8509 22.464C89.8509 22.896 89.6109 23.264 89.1309 23.568C88.6669 23.856 88.1389 24 87.5469 24C86.5549 24 85.7149 23.792 85.0269 23.376C84.3549 22.944 84.0189 22.04 84.0189 20.664V14.04H82.9149C82.5309 14.04 82.2109 13.912 81.9549 13.656C81.6989 13.4 81.5709 13.08 81.5709 12.696C81.5709 12.328 81.6989 12.024 81.9549 11.784C82.2109 11.528 82.5309 11.4 82.9149 11.4H84.0189V9.864C84.0189 9.448 84.1549 9.104 84.4269 8.832C84.7149 8.544 85.0669 8.4 85.4829 8.4C85.8829 8.4 86.2189 8.544 86.4909 8.832C86.7629 9.104 86.8989 9.448 86.8989 9.864V11.4H88.6029C88.9869 11.4 89.3069 11.528 89.5629 11.784C89.8189 12.04 89.9469 12.36 89.9469 12.744C89.9469 13.112 89.8189 13.424 89.5629 13.68C89.3069 13.92 88.9869 14.04 88.6029 14.04H86.8989V20.544C86.8989 20.88 86.9869 21.128 87.1629 21.288C87.3389 21.432 87.5789 21.504 87.8829 21.504C88.0109 21.504 88.1869 21.472 88.4109 21.408C88.6029 21.328 88.7869 21.288 88.9629 21.288ZM102.558 22.536C102.558 22.952 102.406 23.304 102.102 23.592C101.798 23.864 101.446 24 101.046 24C100.614 24 100.254 23.864 99.9658 23.592C99.6938 23.304 99.5578 22.952 99.5578 22.536V8.664C99.5578 8.248 99.7018 7.904 99.9898 7.632C100.278 7.344 100.646 7.2 101.094 7.2C101.494 7.2 101.838 7.344 102.126 7.632C102.414 7.904 102.558 8.248 102.558 8.664V22.536ZM121.623 15.6C121.623 17.184 121.271 18.64 120.567 19.968C119.863 21.28 118.887 22.32 117.639 23.088C116.407 23.856 115.015 24.24 113.463 24.24C111.911 24.24 110.511 23.856 109.263 23.088C108.031 22.32 107.063 21.28 106.359 19.968C105.671 18.64 105.327 17.184 105.327 15.6C105.327 14.016 105.671 12.568 106.359 11.256C107.063 9.928 108.031 8.88 109.263 8.112C110.511 7.344 111.911 6.96 113.463 6.96C115.015 6.96 116.407 7.344 117.639 8.112C118.887 8.88 119.863 9.928 120.567 11.256C121.271 12.568 121.623 14.016 121.623 15.6ZM118.503 15.6C118.503 14.528 118.287 13.56 117.855 12.696C117.423 11.816 116.823 11.12 116.055 10.608C115.287 10.096 114.423 9.84 113.463 9.84C112.487 9.84 111.615 10.096 110.847 10.608C110.095 11.104 109.503 11.792 109.071 12.672C108.655 13.552 108.447 14.528 108.447 15.6C108.447 16.672 108.655 17.648 109.071 18.528C109.503 19.408 110.095 20.104 110.847 20.616C111.615 21.112 112.487 21.36 113.463 21.36C114.423 21.36 115.287 21.104 116.055 20.592C116.823 20.08 117.423 19.392 117.855 18.528C118.287 17.648 118.503 16.672 118.503 15.6ZM136.384 7.152C136.784 7.152 137.128 7.288 137.416 7.56C137.72 7.832 137.872 8.16 137.872 8.544C137.872 8.752 137.824 8.968 137.728 9.192L131.8 23.064C131.656 23.368 131.456 23.6 131.2 23.76C130.944 23.92 130.672 24 130.384 24C130.112 23.984 129.856 23.904 129.616 23.76C129.392 23.6 129.216 23.376 129.088 23.088L123.16 9.168C123.08 9.008 123.04 8.808 123.04 8.568C123.04 8.136 123.2 7.792 123.52 7.536C123.84 7.264 124.168 7.128 124.504 7.128C124.776 7.128 125.032 7.208 125.272 7.368C125.512 7.528 125.696 7.76 125.824 8.064L130.648 19.416L135.064 8.064C135.192 7.776 135.376 7.552 135.616 7.392C135.856 7.232 136.112 7.152 136.384 7.152ZM156.377 21.192C156.793 21.192 157.137 21.328 157.409 21.6C157.697 21.856 157.841 22.192 157.841 22.608C157.841 23.008 157.697 23.344 157.409 23.616C157.137 23.872 156.793 24 156.377 24H148.577C148.161 24 147.809 23.864 147.521 23.592C147.249 23.304 147.113 22.952 147.113 22.536V8.664C147.113 8.248 147.257 7.904 147.545 7.632C147.833 7.344 148.201 7.2 148.649 7.2C149.049 7.2 149.393 7.344 149.681 7.632C149.969 7.904 150.113 8.248 150.113 8.664V21.192H156.377ZM170.741 10.92C171.157 10.92 171.501 11.056 171.773 11.328C172.045 11.6 172.181 11.952 172.181 12.384V22.536C172.181 22.952 172.045 23.304 171.773 23.592C171.501 23.864 171.157 24 170.741 24C170.325 24 169.981 23.864 169.709 23.592C169.453 23.32 169.317 22.976 169.301 22.56C168.901 23.024 168.357 23.424 167.669 23.76C166.997 24.08 166.285 24.24 165.533 24.24C164.429 24.24 163.429 23.96 162.533 23.4C161.637 22.824 160.925 22.032 160.397 21.024C159.885 20.016 159.629 18.872 159.629 17.592C159.629 16.312 159.885 15.168 160.397 14.16C160.909 13.136 161.605 12.344 162.485 11.784C163.381 11.208 164.365 10.92 165.437 10.92C166.205 10.92 166.925 11.064 167.597 11.352C168.269 11.624 168.837 11.976 169.301 12.408V12.384C169.301 11.968 169.437 11.624 169.709 11.352C169.981 11.064 170.325 10.92 170.741 10.92ZM165.893 21.6C166.933 21.6 167.781 21.224 168.437 20.472C169.093 19.704 169.421 18.744 169.421 17.592C169.421 16.44 169.093 15.48 168.437 14.712C167.781 13.944 166.933 13.56 165.893 13.56C164.869 13.56 164.029 13.944 163.373 14.712C162.717 15.48 162.389 16.44 162.389 17.592C162.389 18.744 162.709 19.704 163.349 20.472C164.005 21.224 164.853 21.6 165.893 21.6ZM181.95 10.92C183.054 10.92 184.054 11.208 184.95 11.784C185.846 12.344 186.55 13.128 187.062 14.136C187.59 15.144 187.854 16.288 187.854 17.568C187.854 18.848 187.598 20 187.086 21.024C186.574 22.032 185.87 22.824 184.974 23.4C184.094 23.96 183.118 24.24 182.046 24.24C181.278 24.24 180.55 24.088 179.862 23.784C179.19 23.464 178.63 23.08 178.182 22.632V22.776C178.182 23.192 178.046 23.544 177.774 23.832C177.502 24.104 177.158 24.24 176.742 24.24C176.326 24.24 175.982 24.104 175.71 23.832C175.438 23.56 175.302 23.208 175.302 22.776V7.704C175.302 7.288 175.438 6.944 175.71 6.672C175.982 6.384 176.326 6.24 176.742 6.24C177.158 6.24 177.502 6.384 177.774 6.672C178.046 6.944 178.182 7.288 178.182 7.704V12.72C178.566 12.24 179.102 11.824 179.79 11.472C180.478 11.104 181.198 10.92 181.95 10.92ZM181.59 21.6C182.614 21.6 183.454 21.216 184.11 20.448C184.766 19.68 185.094 18.72 185.094 17.568C185.094 16.416 184.766 15.464 184.11 14.712C183.47 13.944 182.63 13.56 181.59 13.56C180.55 13.56 179.702 13.944 179.046 14.712C178.39 15.464 178.062 16.416 178.062 17.568C178.062 18.72 178.39 19.68 179.046 20.448C179.702 21.216 180.55 21.6 181.59 21.6ZM189.511 22.008C189.367 21.816 189.295 21.576 189.295 21.288C189.295 20.872 189.503 20.52 189.919 20.232C190.143 20.088 190.375 20.016 190.615 20.016C190.951 20.016 191.271 20.168 191.575 20.472C192.055 20.968 192.551 21.336 193.063 21.576C193.591 21.816 194.223 21.936 194.959 21.936C196.207 21.888 196.831 21.416 196.831 20.52C196.831 20.056 196.615 19.704 196.183 19.464C195.767 19.224 195.111 18.984 194.215 18.744C193.287 18.488 192.527 18.232 191.935 17.976C191.359 17.72 190.855 17.336 190.423 16.824C190.007 16.296 189.799 15.592 189.799 14.712C189.799 13.944 190.015 13.28 190.447 12.72C190.895 12.144 191.471 11.704 192.175 11.4C192.895 11.08 193.655 10.92 194.455 10.92C195.271 10.92 196.087 11.072 196.903 11.376C197.719 11.68 198.359 12.128 198.823 12.72C199.031 12.976 199.135 13.264 199.135 13.584C199.135 13.952 198.983 14.256 198.679 14.496C198.455 14.672 198.199 14.76 197.911 14.76C197.559 14.76 197.271 14.648 197.047 14.424C196.759 14.072 196.383 13.792 195.919 13.584C195.471 13.376 194.959 13.272 194.383 13.272C193.167 13.272 192.559 13.712 192.559 14.592C192.559 14.944 192.671 15.232 192.895 15.456C193.119 15.664 193.399 15.832 193.735 15.96C194.087 16.072 194.575 16.216 195.199 16.392C196.063 16.632 196.783 16.88 197.359 17.136C197.935 17.392 198.423 17.784 198.823 18.312C199.223 18.84 199.423 19.536 199.423 20.4C199.423 21.184 199.191 21.872 198.727 22.464C198.263 23.04 197.663 23.48 196.927 23.784C196.207 24.088 195.463 24.24 194.695 24.24C193.639 24.24 192.655 24.064 191.743 23.712C190.831 23.36 190.087 22.792 189.511 22.008Z" fill="black"/>
</svg>
