<svg width="780" height="92" viewBox="0 0 780 92" fill="none" xmlns="http://www.w3.org/2000/svg">
<path d="M13.56 8.016C14.056 8.272 14.304 8.68 14.304 9.24C14.304 9.576 14.184 9.904 13.944 10.224C13.688 10.56 13.36 10.728 12.96 10.728C12.688 10.728 12.416 10.656 12.144 10.512C11.36 10.144 10.512 9.96 9.6 9.96C8.48 9.96 7.504 10.2 6.672 10.68C5.84 11.144 5.2 11.808 4.752 12.672C4.304 13.52 4.08 14.496 4.08 15.6C4.08 17.488 4.584 18.92 5.592 19.896C6.616 20.872 7.952 21.36 9.6 21.36C10.576 21.36 11.424 21.176 12.144 20.808C12.432 20.68 12.688 20.616 12.912 20.616C13.328 20.616 13.68 20.792 13.968 21.144C14.208 21.448 14.328 21.776 14.328 22.128C14.328 22.384 14.264 22.616 14.136 22.824C14.008 23.032 13.824 23.192 13.584 23.304C12.336 23.928 11.008 24.24 9.6 24.24C8.032 24.24 6.592 23.912 5.28 23.256C3.968 22.584 2.92 21.6 2.136 20.304C1.352 19.008 0.96 17.44 0.96 15.6C0.96 13.968 1.328 12.504 2.064 11.208C2.816 9.912 3.848 8.904 5.16 8.184C6.472 7.448 7.952 7.08 9.6 7.08C11.024 7.08 12.344 7.392 13.56 8.016ZM28.9429 17.592C28.9429 18.872 28.6549 20.024 28.0789 21.048C27.5029 22.056 26.7109 22.84 25.7029 23.4C24.7109 23.96 23.6149 24.24 22.4149 24.24C21.1989 24.24 20.0949 23.96 19.1029 23.4C18.1109 22.84 17.3269 22.056 16.7509 21.048C16.1749 20.024 15.8869 18.872 15.8869 17.592C15.8869 16.312 16.1749 15.168 16.7509 14.16C17.3269 13.136 18.1109 12.344 19.1029 11.784C20.0949 11.208 21.1989 10.92 22.4149 10.92C23.6149 10.92 24.7109 11.208 25.7029 11.784C26.7109 12.344 27.5029 13.136 28.0789 14.16C28.6549 15.168 28.9429 16.312 28.9429 17.592ZM26.0629 17.592C26.0629 16.808 25.8949 16.112 25.5589 15.504C25.2389 14.88 24.7989 14.4 24.2389 14.064C23.6949 13.728 23.0869 13.56 22.4149 13.56C21.7429 13.56 21.1269 13.728 20.5669 14.064C20.0229 14.4 19.5829 14.88 19.2469 15.504C18.9269 16.112 18.7669 16.808 18.7669 17.592C18.7669 18.376 18.9269 19.072 19.2469 19.68C19.5829 20.288 20.0229 20.76 20.5669 21.096C21.1269 21.432 21.7429 21.6 22.4149 21.6C23.0869 21.6 23.6949 21.432 24.2389 21.096C24.7989 20.76 25.2389 20.288 25.5589 19.68C25.8949 19.072 26.0629 18.376 26.0629 17.592ZM38.2131 10.92C39.8451 10.92 40.9731 11.408 41.5971 12.384C42.2211 13.344 42.5331 14.68 42.5331 16.392V22.536C42.5331 22.952 42.3971 23.304 42.1251 23.592C41.8531 23.864 41.5091 24 41.0931 24C40.6771 24 40.3331 23.864 40.0611 23.592C39.7891 23.304 39.6531 22.952 39.6531 22.536V16.392C39.6531 15.512 39.4691 14.824 39.1011 14.328C38.7331 13.816 38.1011 13.56 37.2051 13.56C36.2771 13.56 35.5491 13.832 35.0211 14.376C34.4931 14.904 34.2291 15.576 34.2291 16.392V22.536C34.2291 22.952 34.0931 23.304 33.8211 23.592C33.5491 23.864 33.2051 24 32.7891 24C32.3731 24 32.0291 23.864 31.7571 23.592C31.4851 23.304 31.3491 22.952 31.3491 22.536V12.624C31.3491 12.208 31.4851 11.864 31.7571 11.592C32.0291 11.304 32.3731 11.16 32.7891 11.16C33.2051 11.16 33.5491 11.304 33.8211 11.592C34.0931 11.864 34.2291 12.208 34.2291 12.624V13.032C34.6611 12.456 35.2211 11.96 35.9091 11.544C36.6131 11.128 37.3811 10.92 38.2131 10.92ZM51.8379 21.288C52.0619 21.288 52.2619 21.4 52.4379 21.624C52.6299 21.832 52.7259 22.112 52.7259 22.464C52.7259 22.896 52.4859 23.264 52.0059 23.568C51.5419 23.856 51.0139 24 50.4219 24C49.4299 24 48.5899 23.792 47.9019 23.376C47.2299 22.944 46.8939 22.04 46.8939 20.664V14.04H45.7899C45.4059 14.04 45.0859 13.912 44.8299 13.656C44.5739 13.4 44.4459 13.08 44.4459 12.696C44.4459 12.328 44.5739 12.024 44.8299 11.784C45.0859 11.528 45.4059 11.4 45.7899 11.4H46.8939V9.864C46.8939 9.448 47.0299 9.104 47.3019 8.832C47.5899 8.544 47.9419 8.4 48.3579 8.4C48.7579 8.4 49.0939 8.544 49.3659 8.832C49.6379 9.104 49.7739 9.448 49.7739 9.864V11.4H51.4779C51.8619 11.4 52.1819 11.528 52.4379 11.784C52.6939 12.04 52.8219 12.36 52.8219 12.744C52.8219 13.112 52.6939 13.424 52.4379 13.68C52.1819 13.92 51.8619 14.04 51.4779 14.04H49.7739V20.544C49.7739 20.88 49.8619 21.128 50.0379 21.288C50.2139 21.432 50.4539 21.504 50.7579 21.504C50.8859 21.504 51.0619 21.472 51.2859 21.408C51.4779 21.328 51.6619 21.288 51.8379 21.288ZM65.8583 10.92C66.2743 10.92 66.6183 11.056 66.8903 11.328C67.1623 11.6 67.2983 11.952 67.2983 12.384V22.536C67.2983 22.952 67.1623 23.304 66.8903 23.592C66.6183 23.864 66.2743 24 65.8583 24C65.4423 24 65.0983 23.864 64.8263 23.592C64.5703 23.32 64.4343 22.976 64.4183 22.56C64.0183 23.024 63.4743 23.424 62.7863 23.76C62.1143 24.08 61.4023 24.24 60.6503 24.24C59.5463 24.24 58.5463 23.96 57.6503 23.4C56.7543 22.824 56.0423 22.032 55.5143 21.024C55.0023 20.016 54.7463 18.872 54.7463 17.592C54.7463 16.312 55.0023 15.168 55.5143 14.16C56.0263 13.136 56.7223 12.344 57.6023 11.784C58.4983 11.208 59.4823 10.92 60.5543 10.92C61.3223 10.92 62.0423 11.064 62.7143 11.352C63.3863 11.624 63.9543 11.976 64.4183 12.408V12.384C64.4183 11.968 64.5543 11.624 64.8263 11.352C65.0983 11.064 65.4423 10.92 65.8583 10.92ZM61.0103 21.6C62.0503 21.6 62.8983 21.224 63.5543 20.472C64.2103 19.704 64.5383 18.744 64.5383 17.592C64.5383 16.44 64.2103 15.48 63.5543 14.712C62.8983 13.944 62.0503 13.56 61.0103 13.56C59.9863 13.56 59.1463 13.944 58.4903 14.712C57.8343 15.48 57.5063 16.44 57.5063 17.592C57.5063 18.744 57.8263 19.704 58.4663 20.472C59.1223 21.224 59.9703 21.6 61.0103 21.6ZM76.0114 10.92C77.3714 10.92 78.4674 11.136 79.2994 11.568C80.1314 11.984 80.5474 12.544 80.5474 13.248C80.5474 13.6 80.4434 13.912 80.2354 14.184C80.0274 14.44 79.7554 14.568 79.4194 14.568C79.1634 14.568 78.9554 14.536 78.7954 14.472C78.6354 14.392 78.4754 14.296 78.3154 14.184C78.1714 14.056 78.0274 13.952 77.8834 13.872C77.7234 13.792 77.4834 13.72 77.1634 13.656C76.8594 13.592 76.6114 13.56 76.4194 13.56C75.2194 13.56 74.2754 13.936 73.5874 14.688C72.9154 15.424 72.5794 16.392 72.5794 17.592C72.5794 18.744 72.9234 19.704 73.6114 20.472C74.2994 21.224 75.1794 21.6 76.2514 21.6C77.0354 21.6 77.6194 21.504 78.0034 21.312C78.0994 21.264 78.2274 21.184 78.3874 21.072C78.5634 20.944 78.7234 20.848 78.8674 20.784C79.0114 20.72 79.1874 20.688 79.3954 20.688C79.7954 20.688 80.1074 20.816 80.3314 21.072C80.5714 21.328 80.6914 21.656 80.6914 22.056C80.6914 22.44 80.4674 22.8 80.0194 23.136C79.5714 23.472 78.9794 23.744 78.2434 23.952C77.5074 24.144 76.7234 24.24 75.8914 24.24C74.6594 24.24 73.5714 23.952 72.6274 23.376C71.6994 22.8 70.9794 22.008 70.4674 21C69.9554 19.976 69.6994 18.84 69.6994 17.592C69.6994 16.296 69.9634 15.144 70.4914 14.136C71.0354 13.128 71.7874 12.344 72.7474 11.784C73.7074 11.208 74.7954 10.92 76.0114 10.92ZM88.9629 21.288C89.1869 21.288 89.3869 21.4 89.5629 21.624C89.7549 21.832 89.8509 22.112 89.8509 22.464C89.8509 22.896 89.6109 23.264 89.1309 23.568C88.6669 23.856 88.1389 24 87.5469 24C86.5549 24 85.7149 23.792 85.0269 23.376C84.3549 22.944 84.0189 22.04 84.0189 20.664V14.04H82.9149C82.5309 14.04 82.2109 13.912 81.9549 13.656C81.6989 13.4 81.5709 13.08 81.5709 12.696C81.5709 12.328 81.6989 12.024 81.9549 11.784C82.2109 11.528 82.5309 11.4 82.9149 11.4H84.0189V9.864C84.0189 9.448 84.1549 9.104 84.4269 8.832C84.7149 8.544 85.0669 8.4 85.4829 8.4C85.8829 8.4 86.2189 8.544 86.4909 8.832C86.7629 9.104 86.8989 9.448 86.8989 9.864V11.4H88.6029C88.9869 11.4 89.3069 11.528 89.5629 11.784C89.8189 12.04 89.9469 12.36 89.9469 12.744C89.9469 13.112 89.8189 13.424 89.5629 13.68C89.3069 13.92 88.9869 14.04 88.6029 14.04H86.8989V20.544C86.8989 20.88 86.9869 21.128 87.1629 21.288C87.3389 21.432 87.5789 21.504 87.8829 21.504C88.0109 21.504 88.1869 21.472 88.4109 21.408C88.6029 21.328 88.7869 21.288 88.9629 21.288ZM102.558 22.536C102.558 22.952 102.406 23.304 102.102 23.592C101.798 23.864 101.446 24 101.046 24C100.614 24 100.254 23.864 99.9658 23.592C99.6938 23.304 99.5578 22.952 99.5578 22.536V8.664C99.5578 8.248 99.7018 7.904 99.9898 7.632C100.278 7.344 100.646 7.2 101.094 7.2C101.494 7.2 101.838 7.344 102.126 7.632C102.414 7.904 102.558 8.248 102.558 8.664V22.536ZM121.623 15.6C121.623 17.184 121.271 18.64 120.567 19.968C119.863 21.28 118.887 22.32 117.639 23.088C116.407 23.856 115.015 24.24 113.463 24.24C111.911 24.24 110.511 23.856 109.263 23.088C108.031 22.32 107.063 21.28 106.359 19.968C105.671 18.64 105.327 17.184 105.327 15.6C105.327 14.016 105.671 12.568 106.359 11.256C107.063 9.928 108.031 8.88 109.263 8.112C110.511 7.344 111.911 6.96 113.463 6.96C115.015 6.96 116.407 7.344 117.639 8.112C118.887 8.88 119.863 9.928 120.567 11.256C121.271 12.568 121.623 14.016 121.623 15.6ZM118.503 15.6C118.503 14.528 118.287 13.56 117.855 12.696C117.423 11.816 116.823 11.12 116.055 10.608C115.287 10.096 114.423 9.84 113.463 9.84C112.487 9.84 111.615 10.096 110.847 10.608C110.095 11.104 109.503 11.792 109.071 12.672C108.655 13.552 108.447 14.528 108.447 15.6C108.447 16.672 108.655 17.648 109.071 18.528C109.503 19.408 110.095 20.104 110.847 20.616C111.615 21.112 112.487 21.36 113.463 21.36C114.423 21.36 115.287 21.104 116.055 20.592C116.823 20.08 117.423 19.392 117.855 18.528C118.287 17.648 118.503 16.672 118.503 15.6ZM136.384 7.152C136.784 7.152 137.128 7.288 137.416 7.56C137.72 7.832 137.872 8.16 137.872 8.544C137.872 8.752 137.824 8.968 137.728 9.192L131.8 23.064C131.656 23.368 131.456 23.6 131.2 23.76C130.944 23.92 130.672 24 130.384 24C130.112 23.984 129.856 23.904 129.616 23.76C129.392 23.6 129.216 23.376 129.088 23.088L123.16 9.168C123.08 9.008 123.04 8.808 123.04 8.568C123.04 8.136 123.2 7.792 123.52 7.536C123.84 7.264 124.168 7.128 124.504 7.128C124.776 7.128 125.032 7.208 125.272 7.368C125.512 7.528 125.696 7.76 125.824 8.064L130.648 19.416L135.064 8.064C135.192 7.776 135.376 7.552 135.616 7.392C135.856 7.232 136.112 7.152 136.384 7.152ZM156.377 21.192C156.793 21.192 157.137 21.328 157.409 21.6C157.697 21.856 157.841 22.192 157.841 22.608C157.841 23.008 157.697 23.344 157.409 23.616C157.137 23.872 156.793 24 156.377 24H148.577C148.161 24 147.809 23.864 147.521 23.592C147.249 23.304 147.113 22.952 147.113 22.536V8.664C147.113 8.248 147.257 7.904 147.545 7.632C147.833 7.344 148.201 7.2 148.649 7.2C149.049 7.2 149.393 7.344 149.681 7.632C149.969 7.904 150.113 8.248 150.113 8.664V21.192H156.377ZM170.741 10.92C171.157 10.92 171.501 11.056 171.773 11.328C172.045 11.6 172.181 11.952 172.181 12.384V22.536C172.181 22.952 172.045 23.304 171.773 23.592C171.501 23.864 171.157 24 170.741 24C170.325 24 169.981 23.864 169.709 23.592C169.453 23.32 169.317 22.976 169.301 22.56C168.901 23.024 168.357 23.424 167.669 23.76C166.997 24.08 166.285 24.24 165.533 24.24C164.429 24.24 163.429 23.96 162.533 23.4C161.637 22.824 160.925 22.032 160.397 21.024C159.885 20.016 159.629 18.872 159.629 17.592C159.629 16.312 159.885 15.168 160.397 14.16C160.909 13.136 161.605 12.344 162.485 11.784C163.381 11.208 164.365 10.92 165.437 10.92C166.205 10.92 166.925 11.064 167.597 11.352C168.269 11.624 168.837 11.976 169.301 12.408V12.384C169.301 11.968 169.437 11.624 169.709 11.352C169.981 11.064 170.325 10.92 170.741 10.92ZM165.893 21.6C166.933 21.6 167.781 21.224 168.437 20.472C169.093 19.704 169.421 18.744 169.421 17.592C169.421 16.44 169.093 15.48 168.437 14.712C167.781 13.944 166.933 13.56 165.893 13.56C164.869 13.56 164.029 13.944 163.373 14.712C162.717 15.48 162.389 16.44 162.389 17.592C162.389 18.744 162.709 19.704 163.349 20.472C164.005 21.224 164.853 21.6 165.893 21.6ZM181.95 10.92C183.054 10.92 184.054 11.208 184.95 11.784C185.846 12.344 186.55 13.128 187.062 14.136C187.59 15.144 187.854 16.288 187.854 17.568C187.854 18.848 187.598 20 187.086 21.024C186.574 22.032 185.87 22.824 184.974 23.4C184.094 23.96 183.118 24.24 182.046 24.24C181.278 24.24 180.55 24.088 179.862 23.784C179.19 23.464 178.63 23.08 178.182 22.632V22.776C178.182 23.192 178.046 23.544 177.774 23.832C177.502 24.104 177.158 24.24 176.742 24.24C176.326 24.24 175.982 24.104 175.71 23.832C175.438 23.56 175.302 23.208 175.302 22.776V7.704C175.302 7.288 175.438 6.944 175.71 6.672C175.982 6.384 176.326 6.24 176.742 6.24C177.158 6.24 177.502 6.384 177.774 6.672C178.046 6.944 178.182 7.288 178.182 7.704V12.72C178.566 12.24 179.102 11.824 179.79 11.472C180.478 11.104 181.198 10.92 181.95 10.92ZM181.59 21.6C182.614 21.6 183.454 21.216 184.11 20.448C184.766 19.68 185.094 18.72 185.094 17.568C185.094 16.416 184.766 15.464 184.11 14.712C183.47 13.944 182.63 13.56 181.59 13.56C180.55 13.56 179.702 13.944 179.046 14.712C178.39 15.464 178.062 16.416 178.062 17.568C178.062 18.72 178.39 19.68 179.046 20.448C179.702 21.216 180.55 21.6 181.59 21.6ZM189.511 22.008C189.367 21.816 189.295 21.576 189.295 21.288C189.295 20.872 189.503 20.52 189.919 20.232C190.143 20.088 190.375 20.016 190.615 20.016C190.951 20.016 191.271 20.168 191.575 20.472C192.055 20.968 192.551 21.336 193.063 21.576C193.591 21.816 194.223 21.936 194.959 21.936C196.207 21.888 196.831 21.416 196.831 20.52C196.831 20.056 196.615 19.704 196.183 19.464C195.767 19.224 195.111 18.984 194.215 18.744C193.287 18.488 192.527 18.232 191.935 17.976C191.359 17.72 190.855 17.336 190.423 16.824C190.007 16.296 189.799 15.592 189.799 14.712C189.799 13.944 190.015 13.28 190.447 12.72C190.895 12.144 191.471 11.704 192.175 11.4C192.895 11.08 193.655 10.92 194.455 10.92C195.271 10.92 196.087 11.072 196.903 11.376C197.719 11.68 198.359 12.128 198.823 12.72C199.031 12.976 199.135 13.264 199.135 13.584C199.135 13.952 198.983 14.256 198.679 14.496C198.455 14.672 198.199 14.76 197.911 14.76C197.559 14.76 197.271 14.648 197.047 14.424C196.759 14.072 196.383 13.792 195.919 13.584C195.471 13.376 194.959 13.272 194.383 13.272C193.167 13.272 192.559 13.712 192.559 14.592C192.559 14.944 192.671 15.232 192.895 15.456C193.119 15.664 193.399 15.832 193.735 15.96C194.087 16.072 194.575 16.216 195.199 16.392C196.063 16.632 196.783 16.88 197.359 17.136C197.935 17.392 198.423 17.784 198.823 18.312C199.223 18.84 199.423 19.536 199.423 20.4C199.423 21.184 199.191 21.872 198.727 22.464C198.263 23.04 197.663 23.48 196.927 23.784C196.207 24.088 195.463 24.24 194.695 24.24C193.639 24.24 192.655 24.064 191.743 23.712C190.831 23.36 190.087 22.792 189.511 22.008Z" fill="black"/>
<rect y="72" width="780" height="20" rx="10" fill="white"/>
<rect y="72" width="780" height="20" rx="10" fill="#00D27D"/>
<path d="M730.4 22.18C729.536 22.18 728.768 22.072 728.096 21.856C727.424 21.64 726.794 21.274 726.206 20.758C725.882 20.47 725.72 20.152 725.72 19.804C725.72 19.528 725.822 19.288 726.026 19.084C726.23 18.868 726.476 18.76 726.764 18.76C726.992 18.76 727.196 18.832 727.376 18.976C727.856 19.372 728.324 19.66 728.78 19.84C729.236 20.02 729.776 20.11 730.4 20.11C731.072 20.11 731.648 19.96 732.128 19.66C732.62 19.36 732.866 18.988 732.866 18.544C732.866 18.004 732.626 17.584 732.146 17.284C731.666 16.972 730.904 16.738 729.86 16.582C727.232 16.198 725.918 14.974 725.918 12.91C725.918 12.154 726.116 11.5 726.512 10.948C726.908 10.384 727.448 9.958 728.132 9.67C728.816 9.37 729.578 9.22 730.418 9.22C731.174 9.22 731.882 9.334 732.542 9.562C733.214 9.79 733.772 10.09 734.216 10.462C734.564 10.738 734.738 11.056 734.738 11.416C734.738 11.692 734.636 11.938 734.432 12.154C734.228 12.358 733.988 12.46 733.712 12.46C733.532 12.46 733.37 12.406 733.226 12.298C732.914 12.046 732.476 11.818 731.912 11.614C731.36 11.398 730.862 11.29 730.418 11.29C729.662 11.29 729.074 11.434 728.654 11.722C728.246 11.998 728.042 12.364 728.042 12.82C728.042 13.336 728.252 13.726 728.672 13.99C729.104 14.254 729.776 14.47 730.688 14.638C731.72 14.818 732.542 15.052 733.154 15.34C733.778 15.616 734.246 16 734.558 16.492C734.87 16.972 735.026 17.614 735.026 18.418C735.026 19.174 734.81 19.84 734.378 20.416C733.958 20.98 733.394 21.418 732.686 21.73C731.978 22.03 731.216 22.18 730.4 22.18ZM741.554 19.966C741.722 19.966 741.872 20.05 742.004 20.218C742.148 20.374 742.22 20.584 742.22 20.848C742.22 21.172 742.04 21.448 741.68 21.676C741.332 21.892 740.936 22 740.492 22C739.748 22 739.118 21.844 738.602 21.532C738.098 21.208 737.846 20.53 737.846 19.498V14.53H737.018C736.73 14.53 736.49 14.434 736.298 14.242C736.106 14.05 736.01 13.81 736.01 13.522C736.01 13.246 736.106 13.018 736.298 12.838C736.49 12.646 736.73 12.55 737.018 12.55H737.846V11.398C737.846 11.086 737.948 10.828 738.152 10.624C738.368 10.408 738.632 10.3 738.944 10.3C739.244 10.3 739.496 10.408 739.7 10.624C739.904 10.828 740.006 11.086 740.006 11.398V12.55H741.284C741.572 12.55 741.812 12.646 742.004 12.838C742.196 13.03 742.292 13.27 742.292 13.558C742.292 13.834 742.196 14.068 742.004 14.26C741.812 14.44 741.572 14.53 741.284 14.53H740.006V19.408C740.006 19.66 740.072 19.846 740.204 19.966C740.336 20.074 740.516 20.128 740.744 20.128C740.84 20.128 740.972 20.104 741.14 20.056C741.284 19.996 741.422 19.966 741.554 19.966ZM752.828 16.96C752.816 17.248 752.702 17.482 752.486 17.662C752.27 17.842 752.018 17.932 751.73 17.932H745.79C745.934 18.64 746.264 19.198 746.78 19.606C747.296 20.002 747.878 20.2 748.526 20.2C749.018 20.2 749.402 20.158 749.678 20.074C749.954 19.978 750.17 19.882 750.326 19.786C750.494 19.678 750.608 19.606 750.668 19.57C750.884 19.462 751.088 19.408 751.28 19.408C751.532 19.408 751.748 19.498 751.928 19.678C752.108 19.858 752.198 20.068 752.198 20.308C752.198 20.632 752.03 20.926 751.694 21.19C751.358 21.466 750.908 21.7 750.344 21.892C749.78 22.084 749.21 22.18 748.634 22.18C747.626 22.18 746.744 21.97 745.988 21.55C745.244 21.13 744.668 20.554 744.26 19.822C743.852 19.078 743.648 18.244 743.648 17.32C743.648 16.288 743.864 15.382 744.296 14.602C744.728 13.822 745.298 13.228 746.006 12.82C746.714 12.4 747.47 12.19 748.274 12.19C749.066 12.19 749.81 12.406 750.506 12.838C751.214 13.27 751.778 13.852 752.198 14.584C752.618 15.316 752.828 16.108 752.828 16.96ZM748.274 14.17C746.882 14.17 746.06 14.824 745.808 16.132H750.524V16.006C750.476 15.502 750.23 15.07 749.786 14.71C749.342 14.35 748.838 14.17 748.274 14.17ZM759.615 12.19C760.443 12.19 761.193 12.406 761.865 12.838C762.537 13.258 763.065 13.846 763.449 14.602C763.845 15.358 764.043 16.216 764.043 17.176C764.043 18.136 763.851 19 763.467 19.768C763.083 20.524 762.555 21.118 761.883 21.55C761.223 21.97 760.491 22.18 759.687 22.18C759.111 22.18 758.565 22.066 758.049 21.838C757.545 21.598 757.125 21.31 756.789 20.974V24.502C756.789 24.814 756.687 25.072 756.483 25.276C756.279 25.492 756.021 25.6 755.709 25.6C755.397 25.6 755.139 25.498 754.935 25.294C754.731 25.09 754.629 24.826 754.629 24.502V13.468C754.629 13.156 754.731 12.898 754.935 12.694C755.139 12.478 755.397 12.37 755.709 12.37C756.021 12.37 756.279 12.478 756.483 12.694C756.687 12.898 756.789 13.156 756.789 13.468V13.54C757.077 13.18 757.479 12.868 757.995 12.604C758.511 12.328 759.051 12.19 759.615 12.19ZM759.345 20.2C760.113 20.2 760.743 19.912 761.235 19.336C761.727 18.76 761.973 18.04 761.973 17.176C761.973 16.312 761.727 15.598 761.235 15.034C760.755 14.458 760.125 14.17 759.345 14.17C758.565 14.17 757.929 14.458 757.437 15.034C756.945 15.598 756.699 16.312 756.699 17.176C756.699 18.04 756.945 18.76 757.437 19.336C757.929 19.912 758.565 20.2 759.345 20.2ZM775.047 14.008C775.707 14.032 776.289 14.224 776.793 14.584C777.309 14.944 777.705 15.418 777.981 16.006C778.257 16.582 778.395 17.2 778.395 17.86C778.395 18.736 778.197 19.504 777.801 20.164C777.405 20.812 776.847 21.31 776.127 21.658C775.407 22.006 774.567 22.18 773.607 22.18C773.175 22.18 772.743 22.126 772.311 22.018C771.879 21.91 771.501 21.766 771.177 21.586C770.733 21.346 770.511 21.022 770.511 20.614C770.511 20.326 770.613 20.062 770.817 19.822C771.021 19.582 771.267 19.462 771.555 19.462C771.795 19.462 772.053 19.552 772.329 19.732C772.845 20.128 773.415 20.326 774.039 20.326C774.411 20.326 774.765 20.236 775.101 20.056C775.437 19.864 775.707 19.594 775.911 19.246C776.127 18.886 776.235 18.478 776.235 18.022C776.235 17.374 776.037 16.87 775.641 16.51C775.257 16.15 774.789 15.97 774.237 15.97C773.997 15.97 773.787 15.994 773.607 16.042C773.427 16.09 773.319 16.12 773.283 16.132C772.971 16.228 772.713 16.276 772.509 16.276C772.245 16.276 772.035 16.186 771.879 16.006C771.723 15.814 771.645 15.58 771.645 15.304C771.645 15.136 771.675 14.986 771.735 14.854C771.795 14.722 771.897 14.578 772.041 14.422L774.831 11.38H771.267C770.979 11.38 770.739 11.284 770.547 11.092C770.355 10.9 770.259 10.66 770.259 10.372C770.259 10.096 770.355 9.868 770.547 9.688C770.739 9.496 770.979 9.4 771.267 9.4H776.775C777.135 9.4 777.411 9.502 777.603 9.706C777.795 9.898 777.891 10.156 777.891 10.48C777.891 10.768 777.747 11.056 777.459 11.344L775.047 14.008Z" fill="black"/>
</svg>
